HIERARCHY
ROOT Hips
{
  OFFSET 1.44925e-005 102.336 -0.101585
  CHANNELS 6 Xposition Yposition Zposition Zrotation Xrotation Yrotation
  JOINT LeftUpLeg
  {
    OFFSET 8.9458 -8.66707 0.101652
    CHANNELS 3 Zrotation Xrotation Yrotation
    JOINT LeftLeg
    {
      OFFSET 0 -44.4227 1.3727
      CHANNELS 3 Zrotation Xrotation Yrotation
      JOINT LeftFoot
      {
        OFFSET -0.253549 -42.0924 -1.46059
        CHANNELS 3 Zrotation Xrotation Yrotation
        JOINT LeftToes
        {
          OFFSET -0.04 -4.41509 8.4991
          CHANNELS 3 Zrotation Xrotation Yrotation
          End Site
          {
            OFFSET 0.08 -0.047448 9.77979
          }
        }
      }
    }
  }
  JOINT Spine
  {
    OFFSET 0 11.8905 0
    CHANNELS 3 Zrotation Xrotation Yrotation
    JOINT Spine1
    {
      OFFSET 0 25.6574 0.127663
      CHANNELS 3 Zrotation Xrotation Yrotation
      JOINT RightShoulder
      {
        OFFSET -8.99 -0.362252 -0.22
        CHANNELS 3 Zrotation Xrotation Yrotation
        JOINT RightArm
        {
          OFFSET -10.2827 -0.00338 0.322123
          CHANNELS 3 Zrotation Xrotation Yrotation
          JOINT RightForeArm
          {
            OFFSET -26.364 0.099144 -1.42434
            CHANNELS 3 Zrotation Xrotation Yrotation
            JOINT RightHand
            {
              OFFSET -22.0324 0.085362 1.02216
              CHANNELS 3 Zrotation Xrotation Yrotation
              End Site
              {
                OFFSET -13.3284 -0.6 1.50291
              }
            }
          }
        }
      }
      JOINT LeftShoulder1
      {
        OFFSET 8.99 -0.362252 -0.22
        CHANNELS 3 Zrotation Xrotation Yrotation
        JOINT LeftArm
        {
          OFFSET 10.2827 -0.00337999 0.322123
          CHANNELS 3 Zrotation Xrotation Yrotation
          JOINT LeftForeArm
          {
            OFFSET 26.2597 0.099144 -1.42434
            CHANNELS 3 Zrotation Xrotation Yrotation
            JOINT LeftHand
            {
              OFFSET 22.0902 0.085362 1.02216
              CHANNELS 3 Zrotation Xrotation Yrotation
              End Site
              {
                OFFSET 13.419 -0.6 1.50291
              }
            }
          }
        }
      }
      JOINT Head
      {
        OFFSET 0 8.73416 0.011341
        CHANNELS 3 Zrotation Xrotation Yrotation
        End Site
        {
          OFFSET -0.29 12.7742 2.51395
        }
      }
    }
  }
  JOINT RightUpLeg
  {
    OFFSET -8.9458 -8.66707 0.101652
    CHANNELS 3 Zrotation Xrotation Yrotation
    JOINT RightLeg
    {
      OFFSET 0 -44.4227 1.3727
      CHANNELS 3 Zrotation Xrotation Yrotation
      JOINT RightFoot
      {
        OFFSET 0.253549 -42.0924 -1.46059
        CHANNELS 3 Zrotation Xrotation Yrotation
        JOINT RightToes
        {
          OFFSET 0.04 -4.41509 8.4991
          CHANNELS 3 Zrotation Xrotation Yrotation
          End Site
          {
            OFFSET -0.08 -0.137448 9.77979
          }
        }
      }
    }
  }
}
MOTION
Frames:	15
Frame Time:	0.0333333
79.5014 102.367 8.76414 -7.7558 -0.4409 -91.874 -1.27352 3.59957 2.27018 0.472524 11.4709 17.1718 -2.28032 -11.9844 -0.0317784 -1.31417e-009 8.75239e-006 -1.47403e-008 2.94804 8.11899 -0.713506 -3.66906 -0.294088 0.139538 35.9875 1.81237 0.250405 42.2279 -21.0123 6.73791 9.41927 40.3869 5.48153 -8.88596 9.54013 -0.326716 -45.2414 3.67126 -3.55716 -26.9785 -12.9133 3.6643 -4.44524 36.6898 -14.482 5.82328 9.61819 -0.917488 0.270167 -3.01938 -0.150935 -0.526156 3.41746 -4.08502 -0.293054 11.9622 -11.7282 3.39119 -12.3427 -0.0660401 0.0462048 0.000530889 0.662642 
79.4297 102.367 8.73796 -7.72769 -0.449038 -91.8499 -1.25756 3.62895 2.27381 0.47062 11.4482 17.1064 -2.30495 -12.0199 -0.0317826 -1.31417e-009 8.75239e-006 -1.47403e-008 2.92025 8.1096 -0.724232 -3.66327 -0.330857 0.126603 36.0746 1.81237 0.250405 42.1319 -20.8012 6.62001 9.53318 40.4003 5.37027 -9.32044 9.50657 -0.122997 -45.1881 3.66257 -3.54849 -27.0115 -12.7033 3.74102 -4.35124 36.4623 -14.6455 5.82328 9.61819 -0.917488 0.224152 -3.01855 -0.194 -0.504323 3.41029 -4.06495 -0.310394 12.012 -11.7659 3.41625 -12.4044 -0.0660557 0.0462048 0.000530889 0.662642 
79.3138 102.367 8.68758 -7.65665 -0.471806 -91.765 -1.24575 3.64122 2.25165 0.484886 11.408 17.0247 -2.34473 -12.0601 -0.0317874 -1.31417e-009 8.75239e-006 -1.47403e-008 2.75051 8.054 -0.738174 -3.4791 -0.312881 0.0761024 36.1473 1.81237 0.252237 42.0941 -20.661 6.50041 9.67292 40.3066 5.2221 -9.51809 9.48727 0.0169998 -45.2184 3.66424 -3.54714 -26.9677 -12.3452 3.83035 -4.19909 36.0461 -14.921 5.82328 9.61819 -0.917488 0.141059 -3.10218 -0.240645 -0.485226 3.37979 -4.07392 -0.301779 12.0797 -11.8746 3.4884 -12.4901 -0.0660775 0.0462048 0.000530889 0.662642 
79.2113 102.367 8.63058 -7.59087 -0.489442 -91.6666 -1.23222 3.63371 2.22826 0.512031 11.3906 16.9641 -2.39456 -12.0768 -0.0317894 -1.31417e-009 8.75239e-006 -1.47403e-008 2.49118 7.9872 -0.738112 -3.15715 -0.203485 0.0127933 36.0914 1.81237 0.260248 42.2856 -20.8616 6.53707 9.72441 40.5354 5.05394 -9.32164 9.49017 0.104785 -45.3758 3.68486 -3.56305 -26.8294 -12.1533 3.83293 -4.07071 35.8151 -15.1205 5.82328 9.61819 -0.917488 0.0768546 -3.29308 -0.230372 -0.472402 3.38371 -4.11205 -0.260072 12.083 -11.9732 3.48747 -12.5375 -0.0660897 0.0462048 0.000530889 0.662642 
79.1311 102.367 8.58006 -7.57401 -0.4941 -91.617 -1.2104 3.65741 2.2331 0.533715 11.3974 16.9213 -2.44092 -12.0835 -0.0317902 -1.31417e-009 8.75239e-006 -1.47403e-008 2.28871 7.98787 -0.719799 -2.90947 -0.107154 -0.0191661 36.0017 1.81237 0.268391 42.5615 -21.1113 6.65785 9.70796 41.0938 4.91256 -9.14534 9.48503 0.296162 -45.5336 3.70723 -3.5821 -26.6914 -12.194 3.75195 -4.00143 35.8768 -15.1794 5.82328 9.61819 -0.917488 0.0677566 -3.51491 -0.198293 -0.460207 3.45574 -4.14679 -0.218199 12.0333 -11.9872 3.3337 -12.5536 -0.0660938 0.0462048 0.000530889 0.662642 
79.057 102.367 8.54163 -7.58685 -0.492614 -91.6102 -1.18846 3.71772 2.25509 0.544076 11.3994 16.8898 -2.45595 -12.0997 -0.0317921 -1.31417e-009 8.75239e-006 -1.47403e-008 2.20367 8.0578 -0.696375 -2.8352 -0.106172 -0.0130241 36.0091 1.81237 0.270597 42.689 -21.0116 6.6808 9.67689 41.288 4.94968 -9.1899 9.47087 0.465349 -45.5953 3.7148 -3.58734 -26.5868 -12.2897 3.65923 -4.00746 35.9886 -15.1425 5.82328 9.61819 -0.917488 0.0955574 -3.6876 -0.201541 -0.450113 3.54286 -4.16616 -0.190173 12.0032 -11.9597 3.14331 -12.5783 -0.0658345 0.0462048 0.000530889 0.662642 
78.9833 102.367 8.51244 -7.58192 -0.483957 -91.5907 -1.16341 3.76324 2.27275 0.553263 11.3901 16.8511 -2.43042 -12.1284 -0.0317955 -1.31417e-009 8.75239e-006 -1.47403e-008 2.18921 8.11626 -0.686557 -2.84173 -0.14579 -0.00390661 36.0688 1.81237 0.273951 42.6931 -20.5983 6.58754 9.63531 40.7597 5.20621 -9.31847 9.47076 0.376774 -45.6003 3.7135 -3.58338 -26.4654 -12.3599 3.59372 -4.07343 36.0045 -15.0617 5.82328 9.61819 -0.917488 0.103208 -3.81406 -0.202408 -0.434176 3.58536 -4.17592 -0.16021 12.0121 -11.9843 3.06789 -12.6219 -0.0646729 0.0462048 0.000530889 0.662642 
78.9178 102.367 8.48671 -7.55123 -0.464247 -91.5321 -1.12531 3.77157 2.28595 0.567079 11.3808 16.7812 -2.38179 -12.1596 -0.0317992 -1.31417e-009 8.75239e-006 -1.47403e-008 2.19953 8.1154 -0.695477 -2.83322 -0.135087 -0.0143948 36.0713 1.81237 0.281865 42.7393 -20.1839 6.53793 9.58711 40.0715 5.48774 -9.4209 9.48738 0.0778681 -45.5997 3.71669 -3.58671 -26.3479 -12.5029 3.52311 -4.13676 36.0823 -14.9667 5.82328 9.61819 -0.917488 0.0822999 -3.93838 -0.131865 -0.404955 3.59806 -4.18348 -0.118661 12.0145 -12.0663 3.08024 -12.6611 -0.0634057 0.0462048 0.000530889 0.662642 
78.8606 102.367 8.46229 -7.5178 -0.452123 -91.4552 -1.09059 3.77535 2.29739 0.576623 11.3613 16.6894 -2.3285 -12.1786 -0.0318015 -1.31417e-009 8.75239e-006 -1.47403e-008 2.22971 8.08536 -0.709721 -2.83471 -0.0823359 -0.0261609 36.0615 1.81237 0.284526 42.7993 -19.8939 6.61262 9.56595 39.8234 5.61194 -9.54013 9.49993 -0.169078 -45.5564 3.7172 -3.59788 -26.3333 -12.7158 3.41672 -4.13873 36.3141 -14.9041 5.82328 9.61819 -0.917488 0.113852 -4.05038 -0.0340268 -0.383897 3.62388 -4.20218 -0.0768147 11.9828 -12.1323 3.06038 -12.6843 -0.0621263 0.0462048 0.000530889 0.662642 
78.8047 102.367 8.44158 -7.48477 -0.472795 -91.3817 -1.08965 3.79208 2.29517 0.573481 11.3131 16.6155 -2.28026 -12.172 -0.0318007 -1.31417e-009 8.75239e-006 -1.47403e-008 2.27462 8.06563 -0.715739 -2.89738 -0.0628046 -0.0170985 36.1526 1.81237 0.274789 42.7243 -19.6112 6.70375 9.57131 39.7791 5.66434 -9.67818 9.49849 -0.233315 -45.4403 3.71005 -3.60154 -26.4261 -12.7973 3.31408 -4.08072 36.4771 -14.9309 5.82328 9.61819 -0.917488 0.251291 -4.10141 -0.0139069 -0.400772 3.65809 -4.24446 -0.0444868 11.935 -12.1494 3.01086 -12.7105 -0.0609354 0.0462048 0.000530889 0.662642 
78.7521 102.367 8.42596 -7.43725 -0.516329 -91.3062 -1.11715 3.7954 2.2708 0.567279 11.2513 16.5707 -2.25018 -12.1434 -0.0317973 -1.31417e-009 8.75239e-006 -1.47403e-008 2.32668 8.06019 -0.719433 -2.9987 -0.103171 0.00159402 36.3078 1.81237 0.261367 42.5493 -19.3097 6.70236 9.53091 39.497 5.84045 -9.7257 9.49023 -0.151554 -45.3146 3.69509 -3.59186 -26.5138 -12.5722 3.28356 -3.98526 36.3224 -15.0831 5.82328 9.61819 -0.917488 0.405295 -4.10196 -0.0693008 -0.44214 3.66687 -4.29695 -0.0195231 11.8981 -12.159 3.03435 -12.762 -0.0599344 0.0462048 0.000530889 0.662642 
78.7125 102.366 8.41262 -7.37738 -0.547829 -91.2164 -1.13814 3.7674 2.22968 0.577419 11.207 16.5252 -2.24832 -12.1166 -0.0317941 -1.31417e-009 8.75239e-006 -1.47403e-008 2.39449 8.05758 -0.735543 -3.08409 -0.154127 0.00579835 36.3896 1.81237 0.254938 42.4587 -19.1276 6.6664 9.4088 39.1812 6.11748 -9.61264 9.48195 0.027141 -45.2442 3.68352 -3.58027 -26.5558 -12.0644 3.32182 -3.84711 35.8904 -15.3569 5.82328 9.61819 -0.917488 0.455425 -4.11863 -0.108537 -0.464892 3.64153 -4.33173 0.000977157 11.889 -12.2045 3.13772 -12.8266 -0.0592165 0.0462048 0.000530889 0.662642 
78.6888 102.366 8.39902 -7.32037 -0.560051 -91.1201 -1.14393 3.72381 2.17934 0.606132 11.1834 16.4689 -2.26431 -12.1087 -0.0317932 -1.31417e-009 8.75239e-006 -1.47403e-008 2.46825 8.04676 -0.759785 -3.12725 -0.158918 -0.00445235 36.3678 1.81237 0.253818 42.4992 -19.1491 6.72474 9.28588 39.2752 6.27446 -9.43453 9.47644 0.231147 -45.2106 3.67941 -3.5774 -26.6248 -11.4698 3.34864 -3.68384 35.421 -15.6723 5.82328 9.61819 -0.917488 0.438048 -4.17543 -0.108158 -0.463308 3.59739 -4.34889 0.0194952 11.9068 -12.2835 3.20359 -12.8571 -0.0588681 0.0462048 0.000530889 0.662642 
78.6759 102.365 8.38668 -7.27072 -0.576063 -91.0407 -1.15628 3.68086 2.12987 0.632053 11.1646 16.4298 -2.27879 -12.1096 -0.0317933 -1.31417e-009 8.75239e-006 -1.47403e-008 2.50337 8.02923 -0.770557 -3.11966 -0.126119 -0.0119393 36.3256 1.81237 0.252737 42.5513 -19.3136 6.88611 9.26058 39.6636 6.20862 -9.35396 9.47706 0.32853 -45.1807 3.67902 -3.58193 -26.7316 -11.0539 3.31759 -3.58089 35.1125 -15.8769 5.82328 9.61819 -0.917488 0.494738 -4.23209 -0.121266 -0.472623 3.54955 -4.37463 0.0441129 11.9222 -12.3685 3.16104 -12.8248 -0.0589548 0.0462048 0.000530889 0.662642 
78.6692 102.365 8.37788 -7.2276 -0.602438 -90.9891 -1.17916 3.64075 2.09688 0.641064 11.1484 16.4186 -2.28801 -12.1144 -0.0317938 -1.31417e-009 8.75239e-006 -1.47403e-008 2.49496 8.03966 -0.761685 -3.0748 -0.129146 -0.0104255 36.3166 1.81237 0.251754 42.5316 -19.4981 7.02259 9.30465 39.8511 6.07775 -9.39141 9.48025 0.266813 -45.1646 3.6785 -3.58524 -26.7882 -10.9801 3.26942 -3.60594 35.0349 -15.871 5.82328 9.61819 -0.917488 0.655672 -4.26772 -0.166176 -0.504256 3.50823 -4.41495 0.078492 11.9153 -12.4338 3.08664 -12.7718 -0.0594008 0.0462048 0.000530889 0.662642 
